<svg xmlns="http://www.w3.org/2000/svg" width="1240" height="1066" viewBox="0 0 1240 1066" font-family="ui-sans-serif,-apple-system,BlinkMacSystemFont,'Segoe UI',Inter,Roboto,Helvetica,Arial,sans-serif" role="img" aria-label="Resonate architecture: at the top, your application — complex problems, simple code — written in TypeScript, Python, Go, Java or Rust and run on VMs, serverless or sandboxes, shown as a durable TypeScript research agent that plans searches with an LLM, fans them out, and writes a cited report annotated in the margins — plain functions — no DSLs, DAGs or YAML — checkpointed before each step, fanning out across processes, and resuming after a crash at no cost where every await is a checkpoint; below it the Resonate hub marked with the Echo logo and the line “Durable Execution. Dead Simple.”; on the left the backends it can store state in or reach — SQLite, PostgreSQL, MySQL, Amazon S3 and Apache Kafka; on the right the transports — HTTP push, HTTP long-poll, Google Cloud Pub/Sub, NATS, Amazon SQS and more; and along the bottom the plugins that turn external applications into durable functions.">
<defs>
<linearGradient id="hub" x1="0" y1="0" x2="1" y2="1"><stop offset="0" stop-color="#13233A"></stop><stop offset="1" stop-color="#0C1526"></stop></linearGradient>
<radialGradient id="glow" cx="50%" cy="50%" r="50%"><stop offset="0" stop-color="#1EE3CF" stop-opacity="0.30"></stop><stop offset="0.6" stop-color="#1EE3CF" stop-opacity="0.07"></stop><stop offset="1" stop-color="#1EE3CF" stop-opacity="0"></stop></radialGradient>
<pattern id="grid" width="40" height="40" patternUnits="userSpaceOnUse"><path d="M40 0H0V40" fill="none" stroke="#12203a" stroke-width="1"></path></pattern>
</defs>
<rect width="1240" height="1066" rx="20" fill="#080D18"></rect>
<rect width="1240" height="1066" rx="20" fill="url(#grid)" opacity="0.55"></rect>
<ellipse cx="620" cy="581" rx="470" ry="300" fill="url(#glow)"></ellipse>
<path d="M620 458 L620 530" fill="none" stroke="#1EE3CF" stroke-width="2" opacity="0.55"></path>
<path d="M420 634 L300 634" fill="none" stroke="#1EE3CF" stroke-width="2" opacity="0.45"></path>
<path d="M820 634 L940 634" fill="none" stroke="#1EE3CF" stroke-width="2" opacity="0.45"></path>
<path d="M620 738 L620 826" fill="none" stroke="#1EE3CF" stroke-width="2" opacity="0.55"></path>
<circle cx="620" cy="648" r="3.5" fill="#1EE3CF" opacity="0.85"></circle>
<circle cx="620" cy="530" r="3.5" fill="#1EE3CF" opacity="0.85"></circle>
<circle cx="420" cy="634" r="3.5" fill="#1EE3CF" opacity="0.85"></circle>
<circle cx="300" cy="634" r="3.5" fill="#1EE3CF" opacity="0.85"></circle>
<circle cx="820" cy="634" r="3.5" fill="#1EE3CF" opacity="0.85"></circle>
<circle cx="940" cy="634" r="3.5" fill="#1EE3CF" opacity="0.85"></circle>
<circle cx="620" cy="738" r="3.5" fill="#1EE3CF" opacity="0.85"></circle>
<circle cx="620" cy="826" r="3.5" fill="#1EE3CF" opacity="0.85"></circle>
<rect x="300" y="60" width="640" height="398" rx="16" fill="#101A2C" stroke="#1E3048" stroke-width="1"></rect>
<text x="330" y="90" font-size="11" fill="#1EE3CF" font-weight="700" text-anchor="start" letter-spacing="2.2" opacity="1" font-family="ui-monospace,SFMono-Regular,Menlo,Consolas,'Liberation Mono',monospace">YOUR APPLICATION</text>
<text x="330" y="118" font-size="17" fill="#E8EEF5" font-weight="600" text-anchor="start" letter-spacing="0" opacity="1">Complex problems. Simple code.</text>
<rect x="330" y="132" width="96" height="26" rx="13" fill="#0B1424" stroke="#1E3048"></rect>
<text x="378.0" y="149" font-size="12" fill="#8A9BB3" font-weight="600" text-anchor="middle" letter-spacing="0" opacity="1" font-family="ui-monospace,SFMono-Regular,Menlo,Consolas,'Liberation Mono',monospace">TypeScript</text>
<rect x="436" y="132" width="66" height="26" rx="13" fill="#0B1424" stroke="#1E3048"></rect>
<text x="469.2" y="149" font-size="12" fill="#8A9BB3" font-weight="600" text-anchor="middle" letter-spacing="0" opacity="1" font-family="ui-monospace,SFMono-Regular,Menlo,Consolas,'Liberation Mono',monospace">Python</text>
<rect x="512" y="132" width="37" height="26" rx="13" fill="#0B1424" stroke="#1E3048"></rect>
<text x="530.8" y="149" font-size="12" fill="#8A9BB3" font-weight="600" text-anchor="middle" letter-spacing="0" opacity="1" font-family="ui-monospace,SFMono-Regular,Menlo,Consolas,'Liberation Mono',monospace">Go</text>
<rect x="559" y="132" width="52" height="26" rx="13" fill="#0B1424" stroke="#1E3048"></rect>
<text x="584.9999999999999" y="149" font-size="12" fill="#8A9BB3" font-weight="600" text-anchor="middle" letter-spacing="0" opacity="1" font-family="ui-monospace,SFMono-Regular,Menlo,Consolas,'Liberation Mono',monospace">Java</text>
<rect x="621" y="132" width="52" height="26" rx="13" fill="#0B1424" stroke="#1E3048"></rect>
<text x="646.5999999999999" y="149" font-size="12" fill="#8A9BB3" font-weight="600" text-anchor="middle" letter-spacing="0" opacity="1" font-family="ui-monospace,SFMono-Regular,Menlo,Consolas,'Liberation Mono',monospace">Rust</text>
<rect x="420" y="530" width="400" height="208" rx="20" fill="url(#hub)" stroke="#1EE3CF" stroke-width="1.5"></rect>
<rect x="420" y="530" width="400" height="208" rx="20" fill="none" stroke="#1EE3CF" stroke-width="6" opacity="0.08"></rect>
<g transform="translate(588,550) scale(0.30236)">
<path style="fill:#ffffff" d="M 106.32838,18.377687 A 97.327225,87.388214 0 0 0 9.0015166,105.76614 97.327225,87.388214 0 0 0 106.32838,193.15408 97.327225,87.388214 0 0 0 203.65576,105.76614 97.327225,87.388214 0 0 0 106.32838,18.377687 Z m 0.23771,15.456419 a 80.729752,72.485672 0 0 1 80.72995,72.485494 80.729752,72.485672 0 0 1 -80.72995,72.486 80.729752,72.485672 0 0 1 -80.729944,-72.486 80.729752,72.485672 0 0 1 80.729944,-72.485494 z"></path>
<ellipse style="fill:#ffffff" transform="matrix(1,0,0.00212464,0.99999774,0,0)" ry="27.060209" rx="23.858042" cy="101.5191" cx="62.486992"></ellipse>
<ellipse style="fill:#ffffff" transform="matrix(1,0,0.00212464,0.99999774,0,0)" ry="27.060209" rx="23.858042" cy="101.05645" cx="149.49829"></ellipse>
<ellipse style="fill:#ffffff" transform="matrix(1,0,0.00152657,0.99999883,0,0)" ry="4.7031751" rx="2.9793823" cy="129.12817" cx="102.61576"></ellipse>
<ellipse style="fill:#ffffff" transform="matrix(1,0,0.00152657,0.99999883,0,0)" ry="4.7031751" rx="2.9793823" cy="129.16696" cx="111.29089"></ellipse>
</g>
<text x="620" y="678" font-size="52" fill="#FFFFFF" font-weight="800" text-anchor="middle" letter-spacing="2" opacity="1">RESONATE</text>
<text x="620" y="712" font-size="15" fill="#A9B8CC" font-weight="600" text-anchor="middle" letter-spacing="3.2" opacity="1" textLength="286" lengthAdjust="spacingAndGlyphs">DURABLE EXECUTION. DEAD SIMPLE.</text>
<rect x="60" y="530" width="240" height="208" rx="16" fill="#0E1626" stroke="#1E3048" stroke-width="1"></rect>
<text x="84" y="564" font-size="11" fill="#1EE3CF" font-weight="700" text-anchor="start" letter-spacing="2.2" opacity="1" font-family="ui-monospace,SFMono-Regular,Menlo,Consolas,'Liberation Mono',monospace">STORAGE</text>
<text x="84" y="590" font-size="16" fill="#E8EEF5" font-weight="600" text-anchor="start" letter-spacing="0" opacity="1">Pick your backend</text>
<rect x="940" y="530" width="240" height="208" rx="16" fill="#0E1626" stroke="#1E3048" stroke-width="1"></rect>
<text x="1064" y="564" font-size="11" fill="#1EE3CF" font-weight="700" text-anchor="middle" letter-spacing="2.2" opacity="1" font-family="ui-monospace,SFMono-Regular,Menlo,Consolas,'Liberation Mono',monospace">CONNECTIVITY</text>
<text x="1064" y="590" font-size="16" fill="#E8EEF5" font-weight="600" text-anchor="middle" letter-spacing="0" opacity="1">Pick your transport</text>
<rect x="60" y="826" width="1120" height="180" rx="16" fill="#101A2C" stroke="#1E3048" stroke-width="1"></rect>
<text x="88" y="862" font-size="11" fill="#1EE3CF" font-weight="700" text-anchor="start" letter-spacing="2.2" opacity="1" font-family="ui-monospace,SFMono-Regular,Menlo,Consolas,'Liberation Mono',monospace">PLUGINS</text>
<text x="88" y="890" font-size="17" fill="#E8EEF5" font-weight="600" text-anchor="start" letter-spacing="0" opacity="1">Extend Resonate with plugins</text>
<text x="88" y="912" font-size="12" fill="#8A9BB3" font-weight="500" text-anchor="start" letter-spacing="0" opacity="1">Each plugin turns an external application into durable functions</text>
<rect x="972" y="848" width="180" height="46" rx="12" fill="#0B1424" stroke="#1EE3CF" stroke-opacity="0.5"></rect>
<text x="1062" y="870" font-size="22" fill="#1EE3CF" font-weight="800" text-anchor="middle" letter-spacing="0" opacity="1">400+</text>
<text x="1062" y="886" font-size="10" fill="#8A9BB3" font-weight="600" text-anchor="middle" letter-spacing="0" opacity="1" font-family="ui-monospace,SFMono-Regular,Menlo,Consolas,'Liberation Mono',monospace">on the roadmap</text>
<rect x="81" y="925" width="46" height="46" rx="12" fill="#0B1424" stroke="#1E3048"></rect>
<g transform="translate(92,936) scale(1.00000)" opacity="0.85"><path d="M5.042 15.165a2.528 2.528 0 0 1-2.52 2.523A2.528 2.528 0 0 1 0 15.165a2.527 2.527 0 0 1 2.522-2.52h2.52v2.52zM6.313 15.165a2.527 2.527 0 0 1 2.521-2.52 2.527 2.527 0 0 1 2.521 2.52v6.313A2.528 2.528 0 0 1 8.834 24a2.528 2.528 0 0 1-2.521-2.522v-6.313zM8.834 5.042a2.528 2.528 0 0 1-2.521-2.52A2.528 2.528 0 0 1 8.834 0a2.528 2.528 0 0 1 2.521 2.522v2.52H8.834zM8.834 6.313a2.528 2.528 0 0 1 2.521 2.521 2.528 2.528 0 0 1-2.521 2.521H2.522A2.528 2.528 0 0 1 0 8.834a2.528 2.528 0 0 1 2.522-2.521h6.312zM18.956 8.834a2.528 2.528 0 0 1 2.522-2.521A2.528 2.528 0 0 1 24 8.834a2.528 2.528 0 0 1-2.522 2.521h-2.522V8.834zM17.688 8.834a2.528 2.528 0 0 1-2.523 2.521 2.527 2.527 0 0 1-2.52-2.521V2.522A2.527 2.527 0 0 1 15.165 0a2.528 2.528 0 0 1 2.523 2.522v6.312zM15.165 18.956a2.528 2.528 0 0 1 2.523 2.522A2.528 2.528 0 0 1 15.165 24a2.527 2.527 0 0 1-2.52-2.522v-2.522h2.52zM15.165 17.688a2.527 2.527 0 0 1-2.52-2.523 2.526 2.526 0 0 1 2.52-2.52h6.313A2.527 2.527 0 0 1 24 15.165a2.528 2.528 0 0 1-2.522 2.523h-6.313z" fill="#E8EEF5"></path></g>
<rect x="136" y="925" width="46" height="46" rx="12" fill="#0B1424" stroke="#1E3048"></rect>
<g transform="translate(147,936) scale(1.00000)" opacity="0.85"><path d="M12 .297c-6.63 0-12 5.373-12 12 0 5.303 3.438 9.8 8.205 11.385.6.113.82-.258.82-.577 0-.285-.01-1.04-.015-2.04-3.338.724-4.042-1.61-4.042-1.61C4.422 18.07 3.633 17.7 3.633 17.7c-1.087-.744.084-.729.084-.729 1.205.084 1.838 1.236 1.838 1.236 1.07 1.835 2.809 1.305 3.495.998.108-.776.417-1.305.76-1.605-2.665-.3-5.466-1.332-5.466-5.93 0-1.31.465-2.38 1.235-3.22-.135-.303-.54-1.523.105-3.176 0 0 1.005-.322 3.3 1.23.96-.267 1.98-.399 3-.405 1.02.006 2.04.138 3 .405 2.28-1.552 3.285-1.23 3.285-1.23.645 1.653.24 2.873.12 3.176.765.84 1.23 1.91 1.23 3.22 0 4.61-2.805 5.625-5.475 5.92.42.36.81 1.096.81 2.22 0 1.606-.015 2.896-.015 3.286 0 .315.21.69.825.57C20.565 22.092 24 17.592 24 12.297c0-6.627-5.373-12-12-12" fill="#E8EEF5"></path></g>
<rect x="191" y="925" width="46" height="46" rx="12" fill="#0B1424" stroke="#1E3048"></rect>
<g transform="translate(202,936) scale(1.00000)" opacity="0.85"><path d="M13.976 9.15c-2.172-.806-3.356-1.426-3.356-2.409 0-.831.683-1.305 1.901-1.305 2.227 0 4.515.858 6.09 1.631l.89-5.494C18.252.975 15.697 0 12.165 0 9.667 0 7.589.654 6.104 1.872 4.56 3.147 3.757 4.992 3.757 7.218c0 4.039 2.467 5.76 6.476 7.219 2.585.92 3.445 1.574 3.445 2.583 0 .98-.84 1.545-2.354 1.545-1.875 0-4.965-.921-6.99-2.109l-.9 5.555C5.175 22.99 8.385 24 11.714 24c2.641 0 4.843-.624 6.328-1.813 1.664-1.305 2.525-3.236 2.525-5.732 0-4.128-2.524-5.851-6.594-7.305h.003z" fill="#E8EEF5"></path></g>
<rect x="246" y="925" width="46" height="46" rx="12" fill="#0B1424" stroke="#1E3048"></rect>
<g transform="translate(257,936) scale(1.00000)" opacity="0.85"><path d="M4.459 4.208c.746.606 1.026.56 2.428.466l13.215-.793c.28 0 .047-.28-.046-.326L17.86 1.968c-.42-.326-.981-.7-2.055-.607L3.01 2.295c-.466.046-.56.28-.374.466zm.793 3.08v13.904c0 .747.373 1.027 1.214.98l14.523-.84c.841-.046.935-.56.935-1.167V6.354c0-.606-.233-.933-.748-.887l-15.177.887c-.56.047-.747.327-.747.933zm14.337.745c.093.42 0 .84-.42.888l-.7.14v10.264c-.608.327-1.168.514-1.635.514-.748 0-.935-.234-1.495-.933l-4.577-7.186v6.952L12.21 19s0 .84-1.168.84l-3.222.186c-.093-.186 0-.653.327-.746l.84-.233V9.854L7.822 9.76c-.094-.42.14-1.026.793-1.073l3.456-.233 4.764 7.279v-6.44l-1.215-.139c-.093-.514.28-.887.747-.933zM1.936 1.035l13.31-.98c1.634-.14 2.055-.047 3.082.7l4.249 2.986c.7.513.934.653.934 1.213v16.378c0 1.026-.373 1.634-1.68 1.726l-15.458.934c-.98.047-1.448-.093-1.962-.747l-3.129-4.06c-.56-.747-.793-1.306-.793-1.96V2.667c0-.839.374-1.54 1.447-1.632z" fill="#E8EEF5"></path></g>
<rect x="301" y="925" width="46" height="46" rx="12" fill="#0B1424" stroke="#1E3048"></rect>
<g transform="translate(312,936) scale(1.00000)" opacity="0.85"><path d="M10.006 5.415a4.195 4.195 0 013.045-1.306c1.56 0 2.954.9 3.69 2.205.63-.3 1.35-.45 2.1-.45 2.85 0 5.159 2.34 5.159 5.22s-2.31 5.22-5.176 5.22c-.345 0-.69-.044-1.02-.104a3.75 3.75 0 01-3.3 1.95c-.6 0-1.155-.15-1.65-.375A4.314 4.314 0 018.88 20.4a4.302 4.302 0 01-4.05-2.82c-.27.062-.54.076-.825.076-2.204 0-4.005-1.8-4.005-4.05 0-1.5.811-2.805 2.01-3.51-.255-.57-.39-1.2-.39-1.846 0-2.58 2.1-4.65 4.65-4.65 1.53 0 2.85.705 3.72 1.8" fill="#E8EEF5"></path></g>
<rect x="356" y="925" width="46" height="46" rx="12" fill="#0B1424" stroke="#1E3048"></rect>
<g transform="translate(367,936) scale(1.00000)" opacity="0.85"><path d="M11.571 11.513H0a5.218 5.218 0 0 0 5.232 5.215h2.13v2.057A5.215 5.215 0 0 0 12.575 24V12.518a1.005 1.005 0 0 0-1.005-1.005zm5.723-5.756H5.736a5.215 5.215 0 0 0 5.215 5.214h2.129v2.058a5.218 5.218 0 0 0 5.215 5.214V6.758a1.001 1.001 0 0 0-1.001-1.001zM23.013 0H11.455a5.215 5.215 0 0 0 5.215 5.215h2.129v2.057A5.215 5.215 0 0 0 24 12.483V1.005A1.001 1.001 0 0 0 23.013 0Z" fill="#E8EEF5"></path></g>
<rect x="411" y="925" width="46" height="46" rx="12" fill="#0B1424" stroke="#1E3048"></rect>
<g transform="translate(422,936) scale(1.00000)" opacity="0.85"><path d="M18.164 7.93V5.084a2.198 2.198 0 001.267-1.978v-.067A2.2 2.2 0 0017.238.845h-.067a2.2 2.2 0 00-2.193 2.193v.067a2.196 2.196 0 001.252 1.973l.013.006v2.852a6.22 6.22 0 00-2.969 1.31l.012-.01-7.828-6.095A2.497 2.497 0 104.3 4.656l-.012.006 7.697 5.991a6.176 6.176 0 00-1.038 3.446c0 1.343.425 2.588 1.147 3.607l-.013-.02-2.342 2.343a1.968 1.968 0 00-.58-.095h-.002a2.033 2.033 0 102.033 2.033 1.978 1.978 0 00-.1-.595l.005.014 2.317-2.317a6.247 6.247 0 104.782-11.134l-.036-.005zm-.964 9.378a3.206 3.206 0 113.215-3.207v.002a3.206 3.206 0 01-3.207 3.207z" fill="#E8EEF5"></path></g>
<rect x="466" y="925" width="46" height="46" rx="12" fill="#0B1424" stroke="#1E3048"></rect>
<g transform="translate(477,936) scale(1.00000)" opacity="0.85"><path d="M15.337 23.979l7.216-1.561s-2.604-17.613-2.625-17.73c-.018-.116-.114-.192-.211-.192s-1.929-.136-1.929-.136-1.275-1.274-1.439-1.411c-.045-.037-.075-.057-.121-.074l-.914 21.104h.023zM11.71 11.305s-.81-.424-1.774-.424c-1.447 0-1.504.906-1.504 1.141 0 1.232 3.24 1.715 3.24 4.629 0 2.295-1.44 3.76-3.406 3.76-2.354 0-3.54-1.465-3.54-1.465l.646-2.086s1.245 1.066 2.28 1.066c.675 0 .975-.545.975-.932 0-1.619-2.654-1.694-2.654-4.359-.034-2.237 1.571-4.416 4.827-4.416 1.257 0 1.875.361 1.875.361l-.945 2.715-.02.01zM11.17.83c.136 0 .271.038.405.135-.984.465-2.064 1.639-2.508 3.992-.656.213-1.293.405-1.889.578C7.697 3.75 8.951.84 11.17.84V.83zm1.235 2.949v.135c-.754.232-1.583.484-2.394.736.466-1.777 1.333-2.645 2.085-2.971.193.501.309 1.176.309 2.1zm.539-2.234c.694.074 1.141.867 1.429 1.755-.349.114-.735.231-1.158.366v-.252c0-.752-.096-1.371-.271-1.871v.002zm2.992 1.289c-.02 0-.06.021-.078.021s-.289.075-.714.21c-.423-1.233-1.176-2.37-2.508-2.37h-.115C12.135.209 11.669 0 11.265 0 8.159 0 6.675 3.877 6.21 5.846c-1.194.365-2.063.636-2.16.674-.675.213-.694.232-.772.87-.075.462-1.83 14.063-1.83 14.063L15.009 24l.927-21.166z" fill="#E8EEF5"></path></g>
<rect x="521" y="925" width="46" height="46" rx="12" fill="#0B1424" stroke="#1E3048"></rect>
<g transform="translate(532,936) scale(1.00000)" opacity="0.85"><path d="M12 0C5.381-.008.008 5.352 0 11.971V12c0 6.64 5.359 12 12 12 6.64 0 12-5.36 12-12 0-6.641-5.36-12-12-12zm0 20.801c-4.846.015-8.786-3.904-8.801-8.75V12c-.014-4.846 3.904-8.786 8.75-8.801H12c4.847-.014 8.786 3.904 8.801 8.75V12c.015 4.847-3.904 8.786-8.75 8.801H12zm5.44-11.76c0 1.359-1.12 2.479-2.481 2.479-1.366-.007-2.472-1.113-2.479-2.479 0-1.361 1.12-2.481 2.479-2.481 1.361 0 2.481 1.12 2.481 2.481zm0 5.919c0 1.36-1.12 2.48-2.481 2.48-1.367-.008-2.473-1.114-2.479-2.48 0-1.359 1.12-2.479 2.479-2.479 1.361-.001 2.481 1.12 2.481 2.479zm-5.919 0c0 1.36-1.12 2.48-2.479 2.48-1.368-.007-2.475-1.113-2.481-2.48 0-1.359 1.12-2.479 2.481-2.479 1.358-.001 2.479 1.12 2.479 2.479zm0-5.919c0 1.359-1.12 2.479-2.479 2.479-1.367-.007-2.475-1.112-2.481-2.479 0-1.361 1.12-2.481 2.481-2.481 1.358 0 2.479 1.12 2.479 2.481z" fill="#E8EEF5"></path></g>
<rect x="576" y="925" width="46" height="46" rx="12" fill="#0B1424" stroke="#1E3048"></rect>
<g transform="translate(587,936) scale(1.00000)" opacity="0.85"><path d="M22.2819 9.8211a5.9847 5.9847 0 0 0-.5157-4.9108 6.0462 6.0462 0 0 0-6.5098-2.9A6.0651 6.0651 0 0 0 4.9807 4.1818a5.9847 5.9847 0 0 0-3.9977 2.9 6.0462 6.0462 0 0 0 .7427 7.0966 5.98 5.98 0 0 0 .511 4.9107 6.051 6.051 0 0 0 6.5146 2.9001A5.9847 5.9847 0 0 0 13.2599 24a6.0557 6.0557 0 0 0 5.7718-4.2058 5.9894 5.9894 0 0 0 3.9977-2.9001 6.0557 6.0557 0 0 0-.7475-7.0729zm-9.022 12.6081a4.4755 4.4755 0 0 1-2.8764-1.0408l.1419-.0804 4.7783-2.7582a.7948.7948 0 0 0 .3927-.6813v-6.7369l2.02 1.1686a.071.071 0 0 1 .038.052v5.5826a4.504 4.504 0 0 1-4.4945 4.4944zm-9.6607-4.1254a4.4708 4.4708 0 0 1-.5346-3.0137l.142.0852 4.783 2.7582a.7712.7712 0 0 0 .7806 0l5.8428-3.3685v2.3324a.0804.0804 0 0 1-.0332.0615L9.74 19.9502a4.4992 4.4992 0 0 1-6.1408-1.6464zM2.3408 7.8956a4.485 4.485 0 0 1 2.3655-1.9728V11.6a.7664.7664 0 0 0 .3879.6765l5.8144 3.3543-2.0201 1.1685a.0757.0757 0 0 1-.071 0l-4.8303-2.7865A4.504 4.504 0 0 1 2.3408 7.872zm16.5963 3.8558L13.1038 8.364 15.1192 7.2a.0757.0757 0 0 1 .071 0l4.8303 2.7913a4.4944 4.4944 0 0 1-.6765 8.1042v-5.6772a.79.79 0 0 0-.407-.667zm2.0107-3.0231l-.142-.0852-4.7735-2.7818a.7759.7759 0 0 0-.7854 0L9.409 9.2297V6.8974a.0662.0662 0 0 1 .0284-.0615l4.8303-2.7866a4.4992 4.4992 0 0 1 6.6802 4.66zM8.3065 12.863l-2.02-1.1638a.0804.0804 0 0 1-.038-.0567V6.0742a4.4992 4.4992 0 0 1 7.3757-3.4537l-.142.0805L8.704 5.459a.7948.7948 0 0 0-.3927.6813zm1.0976-2.3654l2.602-1.4998 2.6069 1.4998v2.9994l-2.5974 1.4997-2.6067-1.4997Z" fill="#E8EEF5"></path></g>
<rect x="631" y="925" width="46" height="46" rx="12" fill="#0B1424" stroke="#1E3048"></rect>
<g transform="translate(642,936) scale(1.00000)" opacity="0.85"><path d="M24 3.459c0 .646-.418 1.18-1.141 1.18-.723 0-1.142-.534-1.142-1.18 0-.647.419-1.18 1.142-1.18.723 0 1.141.533 1.141 1.18zm-.228 0c0-.533-.38-.951-.913-.951s-.913.38-.913.95c0 .533.38.952.913.952.57 0 .913-.419.913-.951zm-1.37-.533h.495c.266 0 .456.152.456.38 0 .153-.076.229-.19.305l.19.266v.038h-.266l-.19-.266h-.229v.266h-.266zm.495.228h-.229v.267h.229c.114 0 .152-.038.152-.114.038-.077-.038-.153-.152-.153zM7.602 12.4c.038-.151.076-.304.076-.456 0-.114-.038-.228-.038-.342-.114-.343-.304-.647-.646-.838l-4.87-2.777c-.685-.38-1.56-.152-1.94.533-.381.685-.153 1.56.532 1.94l2.701 1.56-2.701 1.56c-.685.38-.913 1.256-.533 1.94.38.685 1.256.914 1.94.533l4.832-2.777c.343-.267.571-.533.647-.876zm1.332 2.626c-.266-.038-.57.038-.837.19l-4.832 2.777c-.685.38-.913 1.256-.532 1.94.38.686 1.255.914 1.94.533l2.701-1.56v3.12c0 .8.647 1.408 1.446 1.408.799 0 1.407-.647 1.407-1.408v-5.592c0-.761-.57-1.37-1.293-1.408zm4.946-6.088c.266.038.57-.038.837-.19l4.832-2.777c.685-.38.913-1.256.532-1.94-.38-.686-1.255-.914-1.94-.533l-2.701 1.56V1.975c0-.799-.647-1.408-1.446-1.408-.799 0-1.446.609-1.446 1.408V7.53c0 .76.609 1.37 1.332 1.407zM3.265 5.97l4.832 2.777c.266.152.533.19.837.19.723-.038 1.331-.684 1.331-1.407V1.975c0-.799-.646-1.408-1.407-1.408-.799 0-1.446.647-1.446 1.408v3.12l-2.701-1.56c-.685-.38-1.56-.152-1.94.533-.419.646-.19 1.521.494 1.902zm9.093 6.011a.412.412 0 00-.114-.266l-.57-.571a.346.346 0 00-.267-.114.412.412 0 00-.266.114l-.571.57a.411.411 0 00-.114.267c0 .076.038.19.114.267l.57.57a.345.345 0 00.267.114c.076 0 .19-.038.266-.114l.571-.57a.412.412 0 00.114-.267zm1.598.533L11.94 14.53c-.039.038-.153.114-.229.114h-.608a.411.411 0 01-.267-.114L8.82 12.514a.408.408 0 01-.076-.229v-.608c0-.076.038-.19.114-.267l2.016-2.016a.41.41 0 01.267-.114h.608a.41.41 0 01.267.114l2.016 2.016a.347.347 0 01.114.267v.608c-.076.077-.114.19-.19.229zm5.593 5.44l-4.832-2.777c-.266-.152-.57-.19-.837-.152-.723.038-1.332.684-1.332 1.408v5.554c0 .8.647 1.408 1.408 1.408.799 0 1.446-.647 1.446-1.408v-3.12l2.7 1.56c.686.38 1.561.152 1.941-.533.419-.646.19-1.521-.494-1.94zm2.549-7.533l-2.701 1.56 2.7 1.56c.686.38.914 1.256.533 1.94-.38.685-1.255.913-1.94.533l-4.832-2.778a1.644 1.644 0 01-.647-.798c-.037-.153-.076-.305-.076-.457 0-.114.039-.228.039-.342.114-.343.342-.647.646-.837l4.832-2.778c.685-.38 1.56-.152 1.94.533.457.609.19 1.484-.494 1.864" fill="#E8EEF5"></path></g>
<rect x="686" y="925" width="46" height="46" rx="12" fill="#0B1424" stroke="#1E3048"></rect>
<g transform="translate(697,936) scale(1.00000)" opacity="0.85"><path d="M.95 14.184L12 20.403l9.919-5.55v2.21L12 22.662l-10.484-5.96-.565.308v.77L12 24l11.05-6.218v-4.317l-.515-.309L12 19.118l-9.867-5.653v-2.21L12 16.805l11.05-6.218V6.32l-.515-.308L12 11.974 2.647 6.681 12 1.388l7.76 4.368.668-.411v-.566L12 0 .95 6.27v.72L12 13.207l9.919-5.55v2.26L12 15.52 1.516 9.56l-.565.308Z" fill="#E8EEF5"></path></g>
<rect x="741" y="925" width="46" height="46" rx="12" fill="#0B1424" stroke="#1E3048"></rect>
<g transform="translate(752,936) scale(1.00000)" opacity="0.85"><path d="M11.992 1.966c-.434 0-.87.086-1.28.257L1.779 5.917c-.503.208-.49.908.012 1.116l8.982 3.558a3.266 3.266 0 0 0 2.454 0l8.982-3.558c.503-.196.503-.908.012-1.116l-8.957-3.694a3.255 3.255 0 0 0-1.272-.257zM23.4 8.056a.589.589 0 0 0-.222.045l-10.012 3.877a.612.612 0 0 0-.38.564v8.896a.6.6 0 0 0 .821.552L23.62 18.1a.583.583 0 0 0 .38-.551V8.653a.6.6 0 0 0-.6-.596zM.676 8.095a.644.644 0 0 0-.48.19C.086 8.396 0 8.53 0 8.69v8.355c0 .442.515.737.908.54l6.27-3.006.307-.147 2.969-1.436c.466-.22.43-.908-.061-1.092L.883 8.138a.57.57 0 0 0-.207-.044z" fill="#E8EEF5"></path></g>
<rect x="796" y="925" width="46" height="46" rx="12" fill="#0B1424" stroke="#1E3048"></rect>
<g transform="translate(807,936) scale(1.00000)" opacity="0.85"><path d="M20.317 4.3698a19.7913 19.7913 0 00-4.8851-1.5152.0741.0741 0 00-.0785.0371c-.211.3753-.4447.8648-.6083 1.2495-1.8447-.2762-3.68-.2762-5.4868 0-.1636-.3933-.4058-.8742-.6177-1.2495a.077.077 0 00-.0785-.037 19.7363 19.7363 0 00-4.8852 1.515.0699.0699 0 00-.0321.0277C.5334 9.0458-.319 13.5799.0992 18.0578a.0824.0824 0 00.0312.0561c2.0528 1.5076 4.0413 2.4228 5.9929 3.0294a.0777.0777 0 00.0842-.0276c.4616-.6304.8731-1.2952 1.226-1.9942a.076.076 0 00-.0416-.1057c-.6528-.2476-1.2743-.5495-1.8722-.8923a.077.077 0 01-.0076-.1277c.1258-.0943.2517-.1923.3718-.2914a.0743.0743 0 01.0776-.0105c3.9278 1.7933 8.18 1.7933 12.0614 0a.0739.0739 0 01.0785.0095c.1202.099.246.1981.3728.2924a.077.077 0 01-.0066.1276 12.2986 12.2986 0 01-1.873.8914.0766.0766 0 00-.0407.1067c.3604.698.7719 1.3628 1.225 1.9932a.076.076 0 00.0842.0286c1.961-.6067 3.9495-1.5219 6.0023-3.0294a.077.077 0 00.0313-.0552c.5004-5.177-.8382-9.6739-3.5485-13.6604a.061.061 0 00-.0312-.0286zM8.02 15.3312c-1.1825 0-2.1569-1.0857-2.1569-2.419 0-1.3332.9555-2.4189 2.157-2.4189 1.2108 0 2.1757 1.0952 2.1568 2.419 0 1.3332-.9555 2.4189-2.1569 2.4189zm7.9748 0c-1.1825 0-2.1569-1.0857-2.1569-2.419 0-1.3332.9554-2.4189 2.1569-2.4189 1.2108 0 2.1757 1.0952 2.1568 2.419 0 1.3332-.946 2.4189-2.1568 2.4189Z" fill="#E8EEF5"></path></g>
<rect x="851" y="925" width="46" height="46" rx="12" fill="#0B1424" stroke="#1E3048"></rect>
<g transform="translate(862,936) scale(1.00000)" opacity="0.85"><path d="M2.886 4.18A11.982 11.982 0 0 1 11.99 0C18.624 0 24 5.376 24 12.009c0 3.64-1.62 6.903-4.18 9.105L2.887 4.18ZM1.817 5.626l16.556 16.556c-.524.33-1.075.62-1.65.866L.951 7.277c.247-.575.537-1.126.866-1.65ZM.322 9.163l14.515 14.515c-.71.172-1.443.282-2.195.322L0 11.358a12 12 0 0 1 .322-2.195Zm-.17 4.862 9.823 9.824a12.02 12.02 0 0 1-9.824-9.824Z" fill="#E8EEF5"></path></g>
<rect x="906" y="925" width="46" height="46" rx="12" fill="#0B1424" stroke="#1E3048"></rect>
<g transform="translate(917,936) scale(1.00000)" opacity="0.85"><path d="M21.4737 5.6842c-1.1772 0-2.1663.8051-2.4468 1.8947h-2.8955c-1.235 0-2.289.893-2.492 2.111l-.1038.623a1.263 1.263 0 0 1-1.246 1.0555H11.289c-.2805-1.0896-1.2696-1.8947-2.4468-1.8947s-2.1663.8051-2.4467 1.8947H4.973c-.2805-1.0896-1.2696-1.8947-2.4468-1.8947C1.1311 9.4737 0 10.6047 0 12s1.131 2.5263 2.5263 2.5263c1.1772 0 2.1663-.8051 2.4468-1.8947h1.4223c.2804 1.0896 1.2696 1.8947 2.4467 1.8947 1.1772 0 2.1663-.8051 2.4468-1.8947h1.0008a1.263 1.263 0 0 1 1.2459 1.0555l.1038.623c.203 1.218 1.257 2.111 2.492 2.111h.3692c.2804 1.0895 1.2696 1.8947 2.4468 1.8947 1.3952 0 2.5263-1.131 2.5263-2.5263s-1.131-2.5263-2.5263-2.5263c-1.1772 0-2.1664.805-2.4468 1.8947h-.3692a1.263 1.263 0 0 1-1.246-1.0555l-.1037-.623A2.52 2.52 0 0 0 13.9607 12a2.52 2.52 0 0 0 .821-1.4794l.1038-.623a1.263 1.263 0 0 1 1.2459-1.0555h2.8955c.2805 1.0896 1.2696 1.8947 2.4468 1.8947 1.3952 0 2.5263-1.131 2.5263-2.5263s-1.131-2.5263-2.5263-2.5263m0 1.2632a1.263 1.263 0 0 1 1.2631 1.2631 1.263 1.263 0 0 1-1.2631 1.2632 1.263 1.263 0 0 1-1.2632-1.2632 1.263 1.263 0 0 1 1.2632-1.2631M2.5263 10.7368A1.263 1.263 0 0 1 3.7895 12a1.263 1.263 0 0 1-1.2632 1.2632A1.263 1.263 0 0 1 1.2632 12a1.263 1.263 0 0 1 1.2631-1.2632m6.3158 0A1.263 1.263 0 0 1 10.1053 12a1.263 1.263 0 0 1-1.2632 1.2632A1.263 1.263 0 0 1 7.579 12a1.263 1.263 0 0 1 1.2632-1.2632m10.1053 3.7895a1.263 1.263 0 0 1 1.2631 1.2632 1.263 1.263 0 0 1-1.2631 1.2631 1.263 1.263 0 0 1-1.2632-1.2631 1.263 1.263 0 0 1 1.2632-1.2632" fill="#E8EEF5"></path></g>
<rect x="961" y="925" width="46" height="46" rx="12" fill="#0B1424" stroke="#1E3048"></rect>
<g transform="translate(972,936) scale(1.00000)" opacity="0.85"><path d="M17.195 16.822l4.002-4.102C23.55 10.308 23.934 5.154 24 .43a.396.396 0 0 0-.246-.373.392.392 0 0 0-.437.09l-6.495 6.658-4.102-4.003C10.309.45 5.154.066.43 0H.423a.397.397 0 0 0-.277.683l6.658 6.494-4.003 4.103C.45 13.692.065 18.846 0 23.57a.398.398 0 0 0 .683.282l6.494-6.657 3.934 3.837.17.165c2.41 2.353 7.565 2.737 12.288 2.803h.006a.397.397 0 0 0 .277-.683l-6.657-6.495zm-.409-9.476c.04.115.05.24.031.344-.17.96-1.593 2.538-4.304 3.87a.597.597 0 0 0-.08-.079c1.432-3.155 1.828-5.61 1.175-7.322l3.058 2.984.12.203zm-.131 9.44a.73.73 0 0 1-.347.031c-.96-.171-2.537-1.594-3.87-4.307a.656.656 0 0 0 .08-.078l-.001.001c3.155 1.432 5.61 1.83 7.324 1.174l-2.969 3.043M23.568.392a.05.05 0 0 1 .052-.011c.018.006.03.024.029.043-.065 4.655-.437 9.726-2.703 12.05-1.53 1.565-4.326 1.419-8.283-.377.006-.037.021-.07.02-.108 0-.044-.017-.082-.026-.123 2.83-1.39 4.315-3.037 4.506-4.115.057-.322-.009-.542-.102-.688l6.507-6.67V.392zM.393.43A.045.045 0 0 1 .382.38C.39.36.403.343.425.35c4.655.065 9.727.438 12.05 2.703l.002.002c1.56 1.527 1.415 4.323-.379 8.28-.033-.005-.062-.02-.097-.02h-.008c-.045.001-.084.019-.126.027-1.39-2.83-3.037-4.314-4.115-4.506-.323-.057-.542.01-.688.103L.393.43zm11.94 11.563a.331.331 0 0 1-.327.335H12a.332.332 0 0 1-.004-.661c.172.016.333.144.335.326h.002zm-5.12 4.661a.722.722 0 0 1-.03-.345c.17-.96 1.595-2.54 4.309-3.873.013.016.019.035.033.05.013.012.03.017.044.028-1.434 3.158-1.83 5.613-1.177 7.326l-3.041-2.967m-.006-9.659a.735.735 0 0 1 .345-.031c.961.17 2.54 1.594 3.871 4.306a.597.597 0 0 0-.079.08c-2.167-.983-4.007-1.484-5.498-1.484-.68 0-1.289.103-1.825.308L7.128 7.35M.43 23.607c-.018.018-.038.015-.052.01-.019-.007-.028-.021-.028-.043.065-4.654.437-9.725 2.703-12.049 1.527-1.565 4.325-1.419 8.286.378-.006.035-.02.067-.02.104 0 .043.018.083.026.124-2.831 1.391-4.317 3.04-4.51 4.117-.057.322.01.542.103.688L.43 23.607zm23.144.042c-4.655-.065-9.726-.437-12.05-2.703l-.005-.006c-1.56-1.526-1.412-4.322.383-8.279.033.005.064.02.098.02h.009c.043 0 .08-.018.122-.027 1.39 2.832 3.036 4.317 4.115 4.51.083.014.16.021.23.021a.776.776 0 0 0 .45-.133l6.68 6.516c.02.02.016.04.01.052a.042.042 0 0 1-.042.029z" fill="#E8EEF5"></path></g>
<rect x="1016" y="925" width="46" height="46" rx="12" fill="#0B1424" stroke="#1E3048"></rect>
<g transform="translate(1027,936) scale(1.00000)" opacity="0.85"><path d="M10.204 14.35l.007.01-.999 2.413a5.171 5.171 0 0 1-2.075-2.597l2.578-.437.004.005a.44.44 0 0 1 .484.606zm-.833-2.129a.44.44 0 0 0 .173-.756l.002-.011L7.585 9.7a5.143 5.143 0 0 0-.73 3.255l2.514-.725.002-.009zm1.145-1.98a.44.44 0 0 0 .699-.337l.01-.005.15-2.62a5.144 5.144 0 0 0-3.01 1.442l2.147 1.523.004-.002zm.76 2.75l.723.349.722-.347.18-.78-.5-.623h-.804l-.5.623.179.779zm1.5-3.095a.44.44 0 0 0 .7.336l.008.003 2.134-1.513a5.188 5.188 0 0 0-2.992-1.442l.148 2.615.002.001zm10.876 5.97l-5.773 7.181a1.6 1.6 0 0 1-1.248.594l-9.261.003a1.6 1.6 0 0 1-1.247-.596l-5.776-7.18a1.583 1.583 0 0 1-.307-1.34L2.1 5.573c.108-.47.425-.864.863-1.073L11.305.513a1.606 1.606 0 0 1 1.385 0l8.345 3.985c.438.209.755.604.863 1.073l2.062 8.955c.108.47-.005.963-.308 1.34zm-3.289-2.057c-.042-.01-.103-.026-.145-.034-.174-.033-.315-.025-.479-.038-.35-.037-.638-.067-.895-.148-.105-.04-.18-.165-.216-.216l-.201-.059a6.45 6.45 0 0 0-.105-2.332 6.465 6.465 0 0 0-.936-2.163c.052-.047.15-.133.177-.159.008-.09.001-.183.094-.282.197-.185.444-.338.743-.522.142-.084.273-.137.415-.242.032-.024.076-.062.11-.089.24-.191.295-.52.123-.736-.172-.216-.506-.236-.745-.045-.034.027-.08.062-.111.088-.134.116-.217.23-.33.35-.246.25-.45.458-.673.609-.097.056-.239.037-.303.033l-.19.135a6.545 6.545 0 0 0-4.146-2.003l-.012-.223c-.065-.062-.143-.115-.163-.25-.022-.268.015-.557.057-.905.023-.163.061-.298.068-.475.001-.04-.001-.099-.001-.142 0-.306-.224-.555-.5-.555-.275 0-.499.249-.499.555l.001.014c0 .041-.002.092 0 .128.006.177.044.312.067.475.042.348.078.637.056.906a.545.545 0 0 1-.162.258l-.012.211a6.424 6.424 0 0 0-4.166 2.003 8.373 8.373 0 0 1-.18-.128c-.09.012-.18.04-.297-.029-.223-.15-.427-.358-.673-.608-.113-.12-.195-.234-.329-.349-.03-.026-.077-.062-.111-.088a.594.594 0 0 0-.348-.132.481.481 0 0 0-.398.176c-.172.216-.117.546.123.737l.007.005.104.083c.142.105.272.159.414.242.299.185.546.338.743.522.076.082.09.226.1.288l.16.143a6.462 6.462 0 0 0-1.02 4.506l-.208.06c-.055.072-.133.184-.215.217-.257.081-.546.11-.895.147-.164.014-.305.006-.48.039-.037.007-.09.02-.133.03l-.004.002-.007.002c-.295.071-.484.342-.423.608.061.267.349.429.645.365l.007-.001.01-.003.129-.029c.17-.046.294-.113.448-.172.33-.118.604-.217.87-.256.112-.009.23.069.288.101l.217-.037a6.5 6.5 0 0 0 2.88 3.596l-.09.218c.033.084.069.199.044.282-.097.252-.263.517-.452.813-.091.136-.185.242-.268.399-.02.037-.045.095-.064.134-.128.275-.034.591.213.71.248.12.556-.007.69-.282v-.002c.02-.039.046-.09.062-.127.07-.162.094-.301.144-.458.132-.332.205-.68.387-.897.05-.06.13-.082.215-.105l.113-.205a6.453 6.453 0 0 0 4.609.012l.106.192c.086.028.18.042.256.155.136.232.229.507.342.84.05.156.074.295.145.457.016.037.043.09.062.129.133.276.442.402.69.282.247-.118.341-.435.213-.71-.02-.039-.045-.096-.065-.134-.083-.156-.177-.261-.268-.398-.19-.296-.346-.541-.443-.793-.04-.13.007-.21.038-.294-.018-.022-.059-.144-.083-.202a6.499 6.499 0 0 0 2.88-3.622c.064.01.176.03.213.038.075-.05.144-.114.28-.104.266.039.54.138.87.256.154.06.277.128.448.173.036.01.088.019.13.028l.009.003.007.001c.297.064.584-.098.645-.365.06-.266-.128-.537-.423-.608zM16.4 9.701l-1.95 1.746v.005a.44.44 0 0 0 .173.757l.003.01 2.526.728a5.199 5.199 0 0 0-.108-1.674A5.208 5.208 0 0 0 16.4 9.7zm-4.013 5.325a.437.437 0 0 0-.404-.232.44.44 0 0 0-.372.233h-.002l-1.268 2.292a5.164 5.164 0 0 0 3.326.003l-1.27-2.296h-.01zm1.888-1.293a.44.44 0 0 0-.27.036.44.44 0 0 0-.214.572l-.003.004 1.01 2.438a5.15 5.15 0 0 0 2.081-2.615l-2.6-.44-.004.005z" fill="#E8EEF5"></path></g>
<rect x="1071" y="925" width="46" height="46" rx="12" fill="#0B1424" stroke="#1E3048"></rect>
<g transform="translate(1082,936) scale(1.00000)" opacity="0.85"><path d="M19.57 17.04l-1.997-1.316-1.665 2.782-1.937-.567-1.706 2.604.087.82 9.274-1.71-.538-5.794zm-8.649-2.498l1.488-.204c.241.108.409.15.697.223.45.117.97.23 1.741-.16.18-.088.553-.43.704-.625l6.096-1.106.622 7.527-10.444 1.882zm11.325-2.712l-.602.115L20.488 0 .789 2.285l2.427 19.693 2.306-.334c-.184-.263-.471-.581-.96-.989-.68-.564-.44-1.522-.039-2.127.53-1.022 3.26-2.322 3.106-3.956-.056-.594-.15-1.368-.702-1.898-.02.22.017.432.017.432s-.227-.289-.34-.683c-.112-.15-.2-.199-.319-.4-.085.233-.073.503-.073.503s-.186-.437-.216-.807c-.11.166-.137.48-.137.48s-.241-.69-.186-1.062c-.11-.323-.436-.965-.343-2.424.6.421 1.924.321 2.44-.439.171-.251.288-.939-.086-2.293-.24-.868-.835-2.16-1.066-2.651l-.028.02c.122.395.374 1.223.47 1.625.293 1.218.372 1.642.234 2.204-.116.488-.397.808-1.107 1.165-.71.358-1.653-.514-1.713-.562-.69-.55-1.224-1.447-1.284-1.883-.062-.477.275-.763.445-1.153-.243.07-.514.192-.514.192s.323-.334.722-.624c.165-.109.262-.178.436-.323a9.762 9.762 0 0 0-.456.003s.42-.227.855-.392c-.318-.014-.623-.003-.623-.003s.937-.419 1.678-.727c.509-.208 1.006-.147 1.286.257.367.53.752.817 1.569.996.501-.223.653-.337 1.284-.509.554-.61.99-.688.99-.688s-.216.198-.274.51c.314-.249.66-.455.66-.455s-.134.164-.259.426l.03.043c.366-.22.797-.394.797-.394s-.123.156-.268.358c.277-.002.838.012 1.056.037 1.285.028 1.552-1.374 2.045-1.55.618-.22.894-.353 1.947.68.903.888 1.609 2.477 1.259 2.833-.294.295-.874-.115-1.516-.916a3.466 3.466 0 0 1-.716-1.562 1.533 1.533 0 0 0-.497-.85s.23.51.23.96c0 .246.03 1.165.424 1.68-.039.076-.057.374-.1.43-.458-.554-1.443-.95-1.604-1.067.544.445 1.793 1.468 2.273 2.449.453.927.186 1.777.416 1.997.065.063.976 1.197 1.15 1.767.306.994.019 2.038-.381 2.685l-1.117.174c-.163-.045-.273-.068-.42-.153.08-.143.241-.5.243-.572l-.063-.111c-.348.492-.93.97-1.414 1.245-.633.359-1.363.304-1.838.156-1.348-.415-2.623-1.327-2.93-1.566 0 0-.01.191.048.234.34.383 1.119 1.077 1.872 1.56l-1.605.177.759 5.908c-.337.048-.39.071-.757.124-.325-1.147-.946-1.895-1.624-2.332-.599-.384-1.424-.47-2.214-.314l-.05.059a2.851 2.851 0 0 1 1.863.444c.654.413 1.181 1.481 1.375 2.124.248.822.42 1.7-.248 2.632-.476.662-1.864 1.028-2.986.237.3.481.705.876 1.25.95.809.11 1.577-.03 2.106-.574.452-.464.69-1.434.628-2.456l.714-.104.258 1.834 11.827-1.424zM15.05 6.848c-.034.075-.085.125-.007.37l.004.014.013.032.032.073c.14.287.295.558.552.696.067-.011.136-.019.207-.023.242-.01.395.028.492.08.009-.048.01-.119.005-.222-.018-.364.072-.982-.626-1.308-.264-.122-.634-.084-.757.068a.302.302 0 0 1 .058.013c.186.066.06.13.027.207m1.958 3.392c-.092-.05-.52-.03-.821.005-.574.068-1.193.267-1.328.372-.247.191-.135.523.047.66.511.382.96.638 1.432.575.29-.038.546-.497.728-.914.124-.288.124-.598-.058-.698m-5.077-2.942c.162-.154-.805-.355-1.556.156-.554.378-.571 1.187-.041 1.646.053.046.096.078.137.104a4.77 4.77 0 0 1 1.396-.412c.113-.125.243-.345.21-.745-.044-.542-.455-.456-.146-.749" fill="#E8EEF5"></path></g>
<rect x="330" y="416" width="46" height="26" rx="13" fill="#0B1424" stroke="#1E3048"></rect><text x="353" y="434" font-size="12" fill="#8A9BB3" font-weight="600" text-anchor="middle" letter-spacing="0" opacity="1" font-family="ui-monospace,SFMono-Regular,Menlo,Consolas,'Liberation Mono',monospace">VMs</text>
<rect x="386" y="416" width="96" height="26" rx="13" fill="#0B1424" stroke="#1E3048"></rect><text x="434" y="434" font-size="12" fill="#8A9BB3" font-weight="600" text-anchor="middle" letter-spacing="0" opacity="1" font-family="ui-monospace,SFMono-Regular,Menlo,Consolas,'Liberation Mono',monospace">Serverless</text>
<rect x="492" y="416" width="89" height="26" rx="13" fill="#0B1424" stroke="#1E3048"></rect><text x="536.5" y="434" font-size="12" fill="#8A9BB3" font-weight="600" text-anchor="middle" letter-spacing="0" opacity="1" font-family="ui-monospace,SFMono-Regular,Menlo,Consolas,'Liberation Mono',monospace">Sandboxes</text>
<rect x="330" y="168" width="580" height="238" rx="10" fill="#0B1424" stroke="#1E3048"></rect>
<rect x="84" y="606" width="46" height="46" rx="12" fill="#0B1424" stroke="#1E3048"></rect><g transform="translate(95,617) scale(1)" opacity="0.9"><path d="M21.678.521c-1.032-.92-2.28-.55-3.513.544a8.71 8.71 0 0 0-.547.535c-2.109 2.237-4.066 6.38-4.674 9.544.237.48.422 1.093.544 1.561a13.044 13.044 0 0 1 .164.703s-.019-.071-.096-.296l-.05-.146a1.689 1.689 0 0 0-.033-.08c-.138-.32-.518-.995-.686-1.289-.143.423-.27.818-.376 1.176.484.884.778 2.4.778 2.4s-.025-.099-.147-.442c-.107-.303-.644-1.244-.772-1.464-.217.804-.304 1.346-.226 1.478.152.256.296.698.422 1.186.286 1.1.485 2.44.485 2.44l.017.224a22.41 22.41 0 0 0 .056 2.748c.095 1.146.273 2.13.5 2.657l.155-.084c-.334-1.038-.47-2.399-.41-3.967.09-2.398.642-5.29 1.661-8.304 1.723-4.55 4.113-8.201 6.3-9.945-1.993 1.8-4.692 7.63-5.5 9.788-.904 2.416-1.545 4.684-1.931 6.857.666-2.037 2.821-2.912 2.821-2.912s1.057-1.304 2.292-3.166c-.74.169-1.955.458-2.362.629-.6.251-.762.337-.762.337s1.945-1.184 3.613-1.72C21.695 7.9 24.195 2.767 21.678.521m-18.573.543A1.842 1.842 0 0 0 1.27 2.9v16.608a1.84 1.84 0 0 0 1.835 1.834h9.418a22.953 22.953 0 0 1-.052-2.707c-.006-.062-.011-.141-.016-.2a27.01 27.01 0 0 0-.473-2.378c-.121-.47-.275-.898-.369-1.057-.116-.197-.098-.31-.097-.432 0-.12.015-.245.037-.386a9.98 9.98 0 0 1 .234-1.045l.217-.028c-.017-.035-.014-.065-.031-.097l-.041-.381a32.8 32.8 0 0 1 .382-1.194l.2-.019c-.008-.016-.01-.038-.018-.053l-.043-.316c.63-3.28 2.587-7.443 4.8-9.791.066-.069.133-.128.198-.194Z" fill="#E8EEF5"></path></g>
<rect x="139" y="606" width="46" height="46" rx="12" fill="#0B1424" stroke="#1E3048"></rect><g transform="translate(150,617) scale(1)" opacity="0.9"><path d="M23.5594 14.7228a.5269.5269 0 0 0-.0563-.1191c-.139-.2632-.4768-.3418-1.0074-.2321-1.6533.3411-2.2935.1312-2.5256-.0191 1.342-2.0482 2.445-4.522 3.0411-6.8297.2714-1.0507.7982-3.5237.1222-4.7316a1.5641 1.5641 0 0 0-.1509-.235C21.6931.9086 19.8007.0248 17.5099.0005c-1.4947-.0158-2.7705.3461-3.1161.4794a9.449 9.449 0 0 0-.5159-.0816 8.044 8.044 0 0 0-1.3114-.1278c-1.1822-.0184-2.2038.2642-3.0498.8406-.8573-.3211-4.7888-1.645-7.2219.0788C.9359 2.1526.3086 3.8733.4302 6.3043c.0409.818.5069 3.334 1.2423 5.7436.4598 1.5065.9387 2.7019 1.4334 3.582.553.9942 1.1259 1.5933 1.7143 1.7895.4474.1491 1.1327.1441 1.8581-.7279.8012-.9635 1.5903-1.8258 1.9446-2.2069.4351.2355.9064.3625 1.39.3772a.0569.0569 0 0 0 .0004.0041 11.0312 11.0312 0 0 0-.2472.3054c-.3389.4302-.4094.5197-1.5002.7443-.3102.064-1.1344.2339-1.1464.8115-.0025.1224.0329.2309.0919.3268.2269.4231.9216.6097 1.015.6331 1.3345.3335 2.5044.092 3.3714-.6787-.017 2.231.0775 4.4174.3454 5.0874.2212.5529.7618 1.9045 2.4692 1.9043.2505 0 .5263-.0291.8296-.0941 1.7819-.3821 2.5557-1.1696 2.855-2.9059.1503-.8707.4016-2.8753.5388-4.1012.0169-.0703.0357-.1207.057-.1362.0007-.0005.0697-.0471.4272.0307a.3673.3673 0 0 0 .0443.0068l.2539.0223.0149.001c.8468.0384 1.9114-.1426 2.5312-.4308.6438-.2988 1.8057-1.0323 1.5951-1.6698zM2.371 11.8765c-.7435-2.4358-1.1779-4.8851-1.2123-5.5719-.1086-2.1714.4171-3.6829 1.5623-4.4927 1.8367-1.2986 4.8398-.5408 6.108-.13-.0032.0032-.0066.0061-.0098.0094-2.0238 2.044-1.9758 5.536-1.9708 5.7495-.0002.0823.0066.1989.0162.3593.0348.5873.0996 1.6804-.0735 2.9184-.1609 1.1504.1937 2.2764.9728 3.0892.0806.0841.1648.1631.2518.2374-.3468.3714-1.1004 1.1926-1.9025 2.1576-.5677.6825-.9597.5517-1.0886.5087-.3919-.1307-.813-.5871-1.2381-1.3223-.4796-.839-.9635-2.0317-1.4155-3.5126zm6.0072 5.0871c-.1711-.0428-.3271-.1132-.4322-.1772.0889-.0394.2374-.0902.4833-.1409 1.2833-.2641 1.4815-.4506 1.9143-1.0002.0992-.126.2116-.2687.3673-.4426a.3549.3549 0 0 0 .0737-.1298c.1708-.1513.2724-.1099.4369-.0417.156.0646.3078.26.3695.4752.0291.1016.0619.2945-.0452.4444-.9043 1.2658-2.2216 1.2494-3.1676 1.0128zm2.094-3.988-.0525.141c-.133.3566-.2567.6881-.3334 1.003-.6674-.0021-1.3168-.2872-1.8105-.8024-.6279-.6551-.9131-1.5664-.7825-2.5004.1828-1.3079.1153-2.4468.079-3.0586-.005-.0857-.0095-.1607-.0122-.2199.2957-.2621 1.6659-.9962 2.6429-.7724.4459.1022.7176.4057.8305.928.5846 2.7038.0774 3.8307-.3302 4.7363-.084.1866-.1633.3629-.2311.5454zm7.3637 4.5725c-.0169.1768-.0358.376-.0618.5959l-.146.4383a.3547.3547 0 0 0-.0182.1077c-.0059.4747-.054.6489-.115.8693-.0634.2292-.1353.4891-.1794 1.0575-.11 1.4143-.8782 2.2267-2.4172 2.5565-1.5155.3251-1.7843-.4968-2.0212-1.2217a6.5824 6.5824 0 0 0-.0769-.2266c-.2154-.5858-.1911-1.4119-.1574-2.5551.0165-.5612-.0249-1.9013-.3302-2.6462.0044-.2932.0106-.5909.019-.8918a.3529.3529 0 0 0-.0153-.1126 1.4927 1.4927 0 0 0-.0439-.208c-.1226-.4283-.4213-.7866-.7797-.9351-.1424-.059-.4038-.1672-.7178-.0869.067-.276.1831-.5875.309-.9249l.0529-.142c.0595-.16.134-.3257.213-.5012.4265-.9476 1.0106-2.2453.3766-5.1772-.2374-1.0981-1.0304-1.6343-2.2324-1.5098-.7207.0746-1.3799.3654-1.7088.5321a5.6716 5.6716 0 0 0-.1958.1041c.0918-1.1064.4386-3.1741 1.7357-4.4823a4.0306 4.0306 0 0 1 .3033-.276.3532.3532 0 0 0 .1447-.0644c.7524-.5706 1.6945-.8506 2.802-.8325.4091.0067.8017.0339 1.1742.081 1.939.3544 3.2439 1.4468 4.0359 2.3827.8143.9623 1.2552 1.9315 1.4312 2.4543-1.3232-.1346-2.2234.1268-2.6797.779-.9926 1.4189.543 4.1729 1.2811 5.4964.1353.2426.2522.4522.2889.5413.2403.5825.5515.9713.7787 1.2552.0696.087.1372.1714.1885.245-.4008.1155-1.1208.3825-1.0552 1.717-.0123.1563-.0423.4469-.0834.8148-.0461.2077-.0702.4603-.0994.7662zm.8905-1.6211c-.0405-.8316.2691-.9185.5967-1.0105a2.8566 2.8566 0 0 0 .135-.0406 1.202 1.202 0 0 0 .1342.103c.5703.3765 1.5823.4213 3.0068.1344-.2016.1769-.5189.3994-.9533.6011-.4098.1903-1.0957.333-1.7473.3636-.7197.0336-1.0859-.0807-1.1721-.151zm.5695-9.2712c-.0059.3508-.0542.6692-.1054 1.0017-.055.3576-.112.7274-.1264 1.1762-.0142.4368.0404.8909.0932 1.3301.1066.887.216 1.8003-.2075 2.7014a3.5272 3.5272 0 0 1-.1876-.3856c-.0527-.1276-.1669-.3326-.3251-.6162-.6156-1.1041-2.0574-3.6896-1.3193-4.7446.3795-.5427 1.3408-.5661 2.1781-.463zm.2284 7.0137a12.3762 12.3762 0 0 0-.0853-.1074l-.0355-.0444c.7262-1.1995.5842-2.3862.4578-3.4385-.0519-.4318-.1009-.8396-.0885-1.2226.0129-.4061.0666-.7543.1185-1.0911.0639-.415.1288-.8443.1109-1.3505.0134-.0531.0188-.1158.0118-.1902-.0457-.4855-.5999-1.938-1.7294-3.253-.6076-.7073-1.4896-1.4972-2.6889-2.0395.5251-.1066 1.2328-.2035 2.0244-.1859 2.0515.0456 3.6746.8135 4.8242 2.2824a.908.908 0 0 1 .0667.1002c.7231 1.3556-.2762 6.2751-2.9867 10.5405zm-8.8166-6.1162c-.025.1794-.3089.4225-.6211.4225a.5821.5821 0 0 1-.0809-.0056c-.1873-.026-.3765-.144-.5059-.3156-.0458-.0605-.1203-.178-.1055-.2844.0055-.0401.0261-.0985.0925-.1488.1182-.0894.3518-.1226.6096-.0867.3163.0441.6426.1938.6113.4186zm7.9305-.4114c.0111.0792-.049.201-.1531.3102-.0683.0717-.212.1961-.4079.2232a.5456.5456 0 0 1-.075.0052c-.2935 0-.5414-.2344-.5607-.3717-.024-.1765.2641-.3106.5611-.352.297-.0414.6111.0088.6356.1851z" fill="#E8EEF5"></path></g>
<rect x="194" y="606" width="46" height="46" rx="12" fill="#0B1424" stroke="#1E3048"></rect><g transform="translate(205,617) scale(1)" opacity="0.9"><path d="M16.405 5.501c-.115 0-.193.014-.274.033v.013h.014c.054.104.146.18.214.273.054.107.1.214.154.32l.014-.015c.094-.066.14-.172.14-.333-.04-.047-.046-.094-.08-.14-.04-.067-.126-.1-.18-.153zM5.77 18.695h-.927a50.854 50.854 0 00-.27-4.41h-.008l-1.41 4.41H2.45l-1.4-4.41h-.01a72.892 72.892 0 00-.195 4.41H0c.055-1.966.192-3.81.41-5.53h1.15l1.335 4.064h.008l1.347-4.064h1.095c.242 2.015.384 3.86.428 5.53zm4.017-4.08c-.378 2.045-.876 3.533-1.492 4.46-.482.716-1.01 1.073-1.583 1.073-.153 0-.34-.046-.566-.138v-.494c.11.017.24.026.386.026.268 0 .483-.075.647-.222.197-.18.295-.382.295-.605 0-.155-.077-.47-.23-.944L6.23 14.615h.91l.727 2.36c.164.536.233.91.205 1.123.4-1.064.678-2.227.835-3.483zm12.325 4.08h-2.63v-5.53h.885v4.85h1.745zm-3.32.135l-1.016-.5c.09-.076.177-.158.255-.25.433-.506.648-1.258.648-2.253 0-1.83-.718-2.746-2.155-2.746-.704 0-1.254.232-1.65.697-.43.508-.646 1.256-.646 2.245 0 .972.19 1.686.574 2.14.35.41.877.615 1.583.615.264 0 .506-.033.725-.098l1.325.772.36-.622zM15.5 17.588c-.225-.36-.337-.94-.337-1.736 0-1.393.424-2.09 1.27-2.09.443 0 .77.167.977.5.224.362.336.936.336 1.723 0 1.404-.424 2.108-1.27 2.108-.445 0-.77-.167-.978-.5zm-1.658-.425c0 .47-.172.856-.516 1.156-.344.3-.803.45-1.384.45-.543 0-1.064-.172-1.573-.515l.237-.476c.438.22.833.328 1.19.328.332 0 .593-.073.783-.22a.754.754 0 00.3-.615c0-.33-.23-.61-.648-.845-.388-.213-1.163-.657-1.163-.657-.422-.307-.632-.636-.632-1.177 0-.45.157-.81.47-1.085.315-.278.72-.415 1.22-.415.512 0 .98.136 1.4.41l-.213.476a2.726 2.726 0 00-1.064-.23c-.283 0-.502.068-.654.206a.685.685 0 00-.248.524c0 .328.234.61.666.85.393.215 1.187.67 1.187.67.433.305.648.63.648 1.168zm9.382-5.852c-.535-.014-.95.04-1.297.188-.1.04-.26.04-.274.167.055.053.063.14.11.214.08.134.218.313.346.407.14.11.28.216.427.31.26.16.555.255.81.416.145.094.293.213.44.313.073.05.12.14.214.172v-.02c-.046-.06-.06-.147-.105-.214-.067-.067-.134-.127-.2-.193a3.223 3.223 0 00-.695-.675c-.214-.146-.682-.35-.77-.595l-.013-.014c.146-.013.32-.066.46-.106.227-.06.435-.047.67-.106.106-.027.213-.06.32-.094v-.06c-.12-.12-.21-.283-.334-.395a8.867 8.867 0 00-1.104-.823c-.21-.134-.476-.22-.697-.334-.08-.04-.214-.06-.26-.127-.12-.146-.19-.34-.275-.514a17.69 17.69 0 01-.547-1.163c-.12-.262-.193-.523-.34-.763-.69-1.137-1.437-1.826-2.586-2.5-.247-.14-.543-.2-.856-.274-.167-.008-.334-.02-.5-.027-.11-.047-.216-.174-.31-.235-.38-.24-1.364-.76-1.644-.072-.18.434.267.862.422 1.082.115.153.26.328.34.5.047.116.06.235.107.356.106.294.207.622.347.897.073.14.153.287.247.413.054.073.146.107.167.227-.094.136-.1.334-.154.5-.24.757-.146 1.693.194 2.25.107.166.362.534.703.393.3-.12.234-.5.32-.835.02-.08.007-.133.048-.187v.015c.094.188.188.367.274.555.206.328.566.668.867.895.16.12.287.328.487.402v-.02h-.015c-.043-.058-.1-.086-.154-.133a3.445 3.445 0 01-.35-.4 8.76 8.76 0 01-.747-1.218c-.11-.21-.202-.436-.29-.643-.04-.08-.04-.2-.107-.24-.1.146-.247.273-.32.453-.127.288-.14.642-.188 1.01-.027.007-.014 0-.027.014-.214-.052-.287-.274-.367-.46-.2-.475-.233-1.238-.06-1.785.047-.14.247-.582.167-.716-.042-.127-.174-.2-.247-.303a2.478 2.478 0 01-.24-.427c-.16-.374-.24-.788-.414-1.162-.08-.173-.22-.354-.334-.513-.127-.18-.267-.307-.368-.52-.033-.073-.08-.194-.027-.274.014-.054.042-.075.094-.09.088-.072.335.022.422.062.247.1.455.194.662.334.094.066.195.193.315.226h.14c.214.047.455.014.655.073.355.114.675.28.962.46a5.953 5.953 0 012.085 2.286c.08.154.115.295.188.455.14.33.313.663.455.982.14.315.275.636.476.897.1.14.502.213.682.286.133.06.34.115.46.188.23.14.454.3.67.454.11.076.443.243.463.378z" fill="#E8EEF5"></path></g>
<rect x="84" y="661" width="46" height="46" rx="12" fill="#0B1424" stroke="#1E3048"></rect><g transform="translate(89.89,666.85) scale(0.1341)" opacity="0.9"><path d="M194.67488,137.25632 L195.90368,128.60352 C207.23488,135.39072 207.38208,138.19392 207.378964,138.27072 C207.35968,138.28672 205.42688,139.89952 194.67488,137.25632 L194.67488,137.25632 Z M188.45728,135.52832 C168.87328,129.60192 141.59968,117.08992 130.56288,111.87392 C130.56288,111.82912 130.57568,111.78752 130.57568,111.74272 C130.57568,107.50272 127.12608,104.05312 122.88288,104.05312 C118.64608,104.05312 115.19648,107.50272 115.19648,111.74272 C115.19648,115.98272 118.64608,119.43232 122.88288,119.43232 C124.74528,119.43232 126.43488,118.73792 127.76928,117.63392 C140.75488,123.78112 167.81728,136.11072 187.54528,141.93472 L179.74368,196.99392 C179.72128,197.14432 179.71168,197.29472 179.71168,197.44512 C179.71168,202.29312 158.24928,211.19872 123.18048,211.19872 C87.74048,211.19872 66.05088,202.29312 66.05088,197.44512 C66.05088,197.29792 66.04128,197.15392 66.02208,197.00992 L49.72128,77.94752 C63.83008,87.65952 94.17568,92.79872 123.19968,92.79872 C152.17888,92.79872 182.47328,87.67872 196.61088,77.99552 L188.45728,135.52832 Z M47.99968,65.52832 C48.23008,61.31712 72.42848,44.79872 123.19968,44.79872 C173.96448,44.79872 198.16608,61.31392 198.39968,65.52832 L198.39968,66.96512 C195.61568,76.40832 164.25568,86.39872 123.19968,86.39872 C82.07328,86.39872 50.69728,76.37632 47.99968,66.92032 L47.99968,65.52832 Z M204.79968,65.59872 C204.79968,54.51072 173.01088,38.39872 123.19968,38.39872 C73.38848,38.39872 41.59968,54.51072 41.59968,65.59872 L41.90048,68.01152 L59.65408,197.68832 C60.07968,212.19072 98.75488,217.59872 123.18048,217.59872 C153.49088,217.59872 185.69248,210.62912 186.10848,197.69792 L193.77568,143.62752 C198.04128,144.64832 201.55168,145.16992 204.37088,145.16992 C208.15648,145.16992 210.71648,144.24512 212.26848,142.39552 C213.54208,140.87872 214.02848,139.04192 213.66368,137.08672 C212.83488,132.65792 207.57728,127.88352 196.87008,121.77472 L204.47328,68.13632 L204.79968,65.59872 Z" fill="#E8EEF5"></path></g>
<rect x="139" y="661" width="46" height="46" rx="12" fill="#0B1424" stroke="#1E3048"></rect><g transform="translate(150,672) scale(1)" opacity="0.9"><path d="M9.71 2.136a1.43 1.43 0 0 0-2.047 0h-.007a1.48 1.48 0 0 0-.421 1.042c0 .41.161.777.422 1.039l.007.007c.257.264.616.426 1.019.426.404 0 .766-.162 1.027-.426l.003-.007c.261-.262.421-.629.421-1.039 0-.408-.159-.777-.421-1.042H9.71zM8.683 22.295c.404 0 .766-.167 1.027-.429l.003-.008c.261-.261.421-.631.421-1.036 0-.41-.159-.778-.421-1.044H9.71a1.42 1.42 0 0 0-1.027-.432 1.4 1.4 0 0 0-1.02.432h-.007c-.26.266-.422.634-.422 1.044 0 .406.161.775.422 1.036l.007.008c.258.262.617.429 1.02.429zm7.89-4.462c.359-.096.683-.33.882-.684l.027-.052a1.47 1.47 0 0 0 .114-1.067 1.454 1.454 0 0 0-.675-.896l-.021-.014a1.425 1.425 0 0 0-1.078-.132c-.36.091-.684.335-.881.686-.2.349-.241.75-.146 1.119.099.363.33.691.675.896h.002c.346.203.737.239 1.101.144zm-6.405-7.342a2.083 2.083 0 0 0-1.485-.627c-.58 0-1.103.242-1.482.627-.378.385-.612.916-.612 1.507s.233 1.124.612 1.514a2.08 2.08 0 0 0 2.967 0c.379-.39.612-.923.612-1.514s-.233-1.122-.612-1.507zm-.835-2.51c.843.141 1.6.552 2.178 1.144h.004c.092.093.182.196.265.299l1.446-.851a3.176 3.176 0 0 1-.047-1.808 3.149 3.149 0 0 1 1.456-1.926l.025-.016a3.062 3.062 0 0 1 2.345-.306c.77.21 1.465.721 1.898 1.482v.002c.431.757.518 1.626.313 2.408a3.145 3.145 0 0 1-1.456 1.928l-.198.118h-.02a3.095 3.095 0 0 1-2.154.201 3.127 3.127 0 0 1-1.514-.944l-1.444.848a4.162 4.162 0 0 1 0 2.879l1.444.846c.413-.47.939-.789 1.514-.944a3.041 3.041 0 0 1 2.371.319l.048.023v.002a3.17 3.17 0 0 1 1.408 1.906 3.215 3.215 0 0 1-.313 2.405l-.026.053-.003-.005a3.147 3.147 0 0 1-1.867 1.436 3.096 3.096 0 0 1-2.371-.318v-.006a3.156 3.156 0 0 1-1.456-1.927 3.175 3.175 0 0 1 .047-1.805l-1.446-.848a3.905 3.905 0 0 1-.265.294l-.004.005a3.938 3.938 0 0 1-2.178 1.138v1.699a3.09 3.09 0 0 1 1.56.862l.002.004c.565.572.914 1.368.914 2.243 0 .873-.35 1.664-.914 2.239l-.002.009a3.1 3.1 0 0 1-2.21.931 3.1 3.1 0 0 1-2.206-.93h-.002v-.009a3.186 3.186 0 0 1-.916-2.239c0-.875.35-1.672.916-2.243v-.004h.002a3.1 3.1 0 0 1 1.558-.862v-1.699a3.926 3.926 0 0 1-2.176-1.138l-.006-.005a4.098 4.098 0 0 1-1.173-2.874c0-1.122.452-2.136 1.173-2.872h.006a3.947 3.947 0 0 1 2.176-1.144V6.289a3.137 3.137 0 0 1-1.558-.864h-.002v-.004a3.192 3.192 0 0 1-.916-2.243c0-.871.35-1.669.916-2.243l.002-.002A3.084 3.084 0 0 1 8.683 0c.861 0 1.641.355 2.21.932v.002h.002c.565.574.914 1.372.914 2.243 0 .876-.35 1.667-.914 2.243l-.002.005a3.142 3.142 0 0 1-1.56.864v1.692zm8.121-1.129l-.012-.019a1.452 1.452 0 0 0-.87-.668 1.43 1.43 0 0 0-1.103.146h.002c-.347.2-.58.529-.677.896-.095.365-.054.768.146 1.119l.007.009c.2.347.519.579.874.673.357.103.755.059 1.098-.144l.019-.009a1.47 1.47 0 0 0 .657-.885 1.493 1.493 0 0 0-.141-1.118" fill="#E8EEF5"></path></g>
<rect x="964" y="606" width="46" height="46" rx="12" fill="#0B1424" stroke="#1E3048"></rect><g transform="translate(975,617.8) scale(0.09375)" opacity="0.9"><path d="M119.540432,100.502743 C108.930124,118.338815 98.7646301,135.611455 88.3876025,152.753617 C85.7226696,157.154315 84.4040417,160.738531 86.5332204,166.333309 C92.4107024,181.787152 84.1193605,196.825836 68.5350381,200.908244 C53.8383677,204.759349 39.5192953,195.099955 36.6032893,179.365384 C34.0194114,165.437749 44.8274148,151.78491 60.1824106,149.608284 C61.4694072,149.424428 62.7821041,149.402681 64.944891,149.240571 C72.469175,136.623655 80.1773157,123.700312 88.3025935,110.073173 C73.611854,95.4654658 64.8677898,78.3885437 66.803227,57.2292132 C68.1712787,42.2715849 74.0527146,29.3462646 84.8033863,18.7517722 C105.393354,-1.53572199 136.805164,-4.82141828 161.048542,10.7510424 C184.333097,25.7086706 194.996783,54.8450075 185.906752,79.7822957 C179.052655,77.9239597 172.151111,76.049808 164.563565,73.9917997 C167.418285,60.1274266 165.306899,47.6765751 155.95591,37.0109123 C149.777932,29.9690049 141.850349,26.2780332 132.835442,24.9178894 C114.764113,22.1877169 97.0209573,33.7983633 91.7563309,51.5355878 C85.7800012,71.6669027 94.8245623,88.1111998 119.540432,100.502743 L119.540432,100.502743 Z" fill="#E8EEF5"></path><path d="M149.841194,79.4106285 C157.316054,92.5969067 164.905578,105.982857 172.427885,119.246236 C210.44865,107.483365 239.114472,128.530009 249.398582,151.063322 C261.81978,178.282014 253.328765,210.520191 228.933162,227.312431 C203.893073,244.551464 172.226236,241.605803 150.040866,219.46195 C155.694953,214.729124 161.376716,209.974552 167.44794,204.895759 C189.360489,219.088306 208.525074,218.420096 222.753207,201.614016 C234.885769,187.277151 234.622834,165.900356 222.138374,151.863988 C207.730339,135.66681 188.431321,135.172572 165.103273,150.721309 C155.426087,133.553447 145.58086,116.521995 136.210101,99.2295848 C133.05093,93.4015266 129.561608,90.0209366 122.440622,88.7873178 C110.547271,86.7253555 102.868785,76.5124151 102.408155,65.0698097 C101.955433,53.7537294 108.621719,43.5249733 119.04224,39.5394355 C129.363912,35.5914599 141.476705,38.7783085 148.419765,47.554004 C154.093621,54.7244134 155.896602,62.7943365 152.911402,71.6372484 C152.081082,74.1025091 151.00562,76.4886916 149.841194,79.4106285 L149.841194,79.4106285 Z" fill="#E8EEF5"></path><path d="M167.706921,187.209935 L121.936499,187.209935 C117.54964,205.253587 108.074103,219.821756 91.7464461,229.085759 C79.0544063,236.285822 65.3738898,238.72736 50.8136292,236.376762 C24.0061432,232.053165 2.08568567,207.920497 0.156179306,180.745298 C-2.02835403,149.962159 19.1309765,122.599149 47.3341915,116.452801 C49.2814904,123.524363 51.2485589,130.663141 53.1958579,137.716911 C27.3195169,150.919004 18.3639187,167.553089 25.6054984,188.352614 C31.9811726,206.657224 50.0900643,216.690262 69.7528413,212.809503 C89.8327554,208.847688 99.9567329,192.160226 98.7211371,165.37844 C117.75722,165.37844 136.809118,165.180745 155.847178,165.475311 C163.280522,165.591951 169.019617,164.820939 174.620326,158.267339 C183.840836,147.48306 200.811003,148.455721 210.741239,158.640984 C220.88894,169.049642 220.402609,185.79839 209.663799,195.768166 C199.302587,205.38802 182.933414,204.874012 173.240413,194.508846 C171.247644,192.37176 169.677943,189.835329 167.706921,187.209935 L167.706921,187.209935 Z" fill="#E8EEF5"></path></g>
<rect x="1019" y="606" width="46" height="46" rx="12" fill="#0B1424" stroke="#1E3048"></rect><g transform="translate(1030,617)" opacity="0.9"><path d="M11.5 3.5 A 8.5 8.5 0 1 1 5.0 7.0" fill="none" stroke="#E8EEF5" stroke-width="2.3" stroke-linecap="round"></path><path d="M11.2 0.4 L16.2 3.5 L11.2 6.6 Z" fill="#E8EEF5"></path></g>
<rect x="1074" y="606" width="46" height="46" rx="12" fill="#0B1424" stroke="#1E3048"></rect><g transform="translate(1085,617)" opacity="0.9"><path d="M12.19 2.38a9.344 9.344 0 0 0-9.234 6.893c.053-.02-.055.013 0 0-3.875 2.551-3.922 8.11-.247 10.941l.006-.007-.007.03a6.717 6.717 0 0 0 4.077 1.356h5.173l.03.03h5.192c6.687.053 9.376-8.605 3.835-12.35a9.365 9.365 0 0 0-2.821-4.552l-.043.043.006-.05A9.344 9.344 0 0 0 12.19 2.38zm-.358 4.146c1.244-.04 2.518.368 3.486 1.15a5.186 5.186 0 0 1 1.862 4.078v.518c3.53-.07 3.53 5.262 0 5.193h-5.193l-.008.009v-.04H6.785a2.59 2.59 0 0 1-1.067-.23h.001a2.597 2.597 0 1 1 3.437-3.437l3.013-3.012A6.747 6.747 0 0 0 8.11 8.24c.018-.01.04-.026.054-.023a5.186 5.186 0 0 1 3.67-1.69z" fill="#E8EEF5"></path></g>
<rect x="964" y="661" width="46" height="46" rx="12" fill="#0B1424" stroke="#1E3048"></rect><g transform="translate(975,672)" opacity="0.9"><path d="M12.004 0H.404v18.807h9.938l1.714 1.602v-.026L15.966 24v-5.193h7.63V0H12.003zm7.578 14.45H15.38L6.898 6.519v7.93H4.116V4.376h4.349l8.344 7.784V4.375h2.773V14.45z" fill="#E8EEF5"></path></g>
<rect x="1019" y="661" width="46" height="46" rx="12" fill="#0B1424" stroke="#1E3048"></rect><g transform="translate(1021.80,663.8) scale(0.1525)" opacity="0.9"><path d="M91.8943891,139.800562 L101.500565,130.309843 C102.102552,129.714884 102.44197,128.906756 102.445217,128.063632 C102.448374,127.220508 102.112158,126.409199 101.513373,125.811058 L91.9071974,116.212164 L87.3666787,120.698223 L91.4877277,124.818398 L76.8287043,124.818398 L76.8287043,131.181602 L91.5389606,131.181602 L87.3794867,135.28905 L91.8943891,139.800562 Z M165.20872,140.090088 L178.016954,130.538918 C178.817468,129.937596 179.294575,128.995841 179.294575,127.996818 C179.294575,126.994614 178.817468,126.049678 178.013752,125.448355 L165.205518,115.909912 L161.363048,121.000476 L166.486341,124.818398 L153.678107,124.818398 L153.678107,131.181602 L166.483139,131.181602 L161.359846,134.999524 L165.20872,140.090088 Z M112.666142,128 C112.666142,134.754541 111.497391,141.124108 109.313587,146.666459 C115.074091,144.452064 121.571067,143.344867 128.06164,143.344867 C134.552212,143.344867 141.049189,144.452064 146.80649,146.666459 C144.625888,141.124108 143.457137,134.754541 143.457137,128 C143.457137,121.245459 144.625888,114.879073 146.80649,109.333541 C135.288685,113.759149 120.834594,113.759149 109.313587,109.333541 C111.497391,114.879073 112.666142,121.245459 112.666142,128 L112.666142,128 Z M96.9792582,158.883811 C96.3548566,158.263399 96.041055,157.448908 96.041055,156.634418 C96.041055,155.819928 96.3548566,155.005438 96.9792582,154.385026 C102.790994,148.610418 106.262026,138.74427 106.262026,128 C106.262026,117.25573 102.790994,107.389582 96.9792582,101.614974 C96.3548566,100.994562 96.041055,100.180072 96.041055,99.3655818 C96.041055,98.5510915 96.3548566,97.7366013 96.9792582,97.1161891 C98.231263,95.8721827 100.254964,95.8721827 101.506969,97.1161891 C113.914945,109.444897 142.208334,109.444897 154.61631,97.1161891 C155.868315,95.8721827 157.892016,95.8721827 159.144021,97.1161891 C159.768422,97.7366013 160.082224,98.5510915 160.082224,99.3655818 C160.082224,100.180072 159.768422,100.994562 159.144021,101.614974 C153.332285,107.389582 149.861254,117.25573 149.861254,128 C149.861254,138.74427 153.332285,148.610418 159.144021,154.385026 C159.768422,155.005438 160.082224,155.819928 160.082224,156.634418 C160.082224,157.448908 159.768422,158.263399 159.144021,158.883811 C158.51962,159.504223 157.699893,159.81602 156.880166,159.81602 C156.060439,159.81602 155.240712,159.504223 154.61631,158.883811 C142.208334,146.555103 113.914945,146.555103 101.506969,158.883811 C100.254964,160.127817 98.231263,160.127817 96.9792582,158.883811 L96.9792582,158.883811 Z M211.203088,128.015908 C211.203088,125.050655 210.04074,122.263572 207.930584,120.166896 C205.753184,118.000225 202.890544,116.921662 200.031106,116.921662 C197.171668,116.921662 194.309027,118.000225 192.131628,120.166896 C187.773626,124.493875 187.773626,131.53476 192.131628,135.86492 C196.486427,140.191899 203.56938,140.195081 207.930584,135.86492 C210.04074,133.768244 211.203088,130.981161 211.203088,128.015908 L211.203088,128.015908 Z M212.458295,140.363706 C209.032092,143.76802 204.5332,145.470177 200.031106,145.470177 C195.529012,145.470177 191.030119,143.76802 187.603917,140.363706 C180.74831,133.555077 180.74831,122.476739 187.603917,115.66811 C194.459524,108.853119 205.609092,108.859482 212.458295,115.66811 C219.313902,122.476739 219.313902,133.555077 212.458295,140.363706 L212.458295,140.363706 Z M67.1360733,128.089085 C67.1360733,125.123832 65.9737261,122.336748 63.8635693,120.240073 C61.7534128,118.143397 58.9484096,116.988475 55.9640912,116.988475 C52.9829747,116.988475 50.1779715,118.143397 48.0646131,120.240073 C45.9544563,122.336748 44.7953114,125.123832 44.7953114,128.089085 C44.7953114,131.051156 45.9544563,133.83824 48.0646131,135.938097 C52.288128,140.128267 59.6432563,140.128267 63.8635693,135.938097 C65.9737261,133.83824 67.1360733,131.051156 67.1360733,128.089085 L67.1360733,128.089085 Z M68.39128,140.436882 C64.9650774,143.841196 60.4661853,145.543354 55.9640912,145.543354 C51.465199,145.543354 46.9663069,143.841196 43.5369024,140.436882 C36.6876992,133.628254 36.6876992,122.549916 43.5369024,115.741287 C50.3925094,108.932659 61.5388749,108.932659 68.39128,115.741287 C75.2436851,122.549916 75.2436851,133.628254 68.39128,140.436882 L68.39128,140.436882 Z M175.666643,175.539498 C162.884026,188.243635 145.884297,195.236796 127.805475,195.236796 C109.720249,195.236796 92.7237222,188.243635 79.941105,175.539498 C71.1738688,166.831453 66.3483667,156.424433 63.8443571,149.23083 L57.7924666,151.311598 C60.5174182,159.138339 65.7848045,170.474387 75.4133942,180.038283 C89.4063898,193.945066 108.010349,201.6 127.805475,201.6 C147.597398,201.6 166.201358,193.945066 180.194354,180.038283 C188.279551,172.011101 194.718891,161.804522 198.334015,151.302053 L192.27572,149.240375 C188.971196,158.84245 183.073004,168.183634 175.666643,175.539498 L175.666643,175.539498 Z M63.8411549,106.772351 L57.7956688,104.68522 C61.6701594,93.6005187 67.9333856,83.3939395 75.4326067,75.945809 C89.4191981,62.051753 108.016754,54.4 127.805475,54.4 C147.594196,54.4 166.191752,62.051753 180.175141,75.945809 C188.068215,83.7884579 194.68687,94.2622918 198.327611,104.68522 L192.282124,106.772351 C188.942377,97.227545 182.880881,87.6318333 175.64743,80.4445942 C162.874419,67.7500022 145.881095,60.7632042 127.805475,60.7632042 C109.726653,60.7632042 92.7365306,67.7500022 79.9603174,80.4445942 C73.1335286,87.2309514 67.408248,96.58168 63.8411549,106.772351 L63.8411549,106.772351 Z" fill="#E8EEF5"></path></g>
<rect x="1074" y="661" width="46" height="46" rx="12" fill="#0B1424" stroke="#1E3048"></rect><g opacity="0.55"><circle cx="1089" cy="684" r="2.4" fill="#E8EEF5"></circle><circle cx="1097" cy="684" r="2.4" fill="#E8EEF5"></circle><circle cx="1105" cy="684" r="2.4" fill="#E8EEF5"></circle></g>
<rect x="194" y="661" width="46" height="46" rx="12" fill="#0B1424" stroke="#1E3048"></rect><g opacity="0.55"><circle cx="209" cy="684" r="2.4" fill="#E8EEF5"></circle><circle cx="217" cy="684" r="2.4" fill="#E8EEF5"></circle><circle cx="225" cy="684" r="2.4" fill="#E8EEF5"></circle></g>
<text x="360" y="610" font-size="13" fill="#7C8CA3" font-weight="600" text-anchor="middle" letter-spacing="0" font-family="ui-monospace,SFMono-Regular,Menlo,Consolas,'Liberation Mono',monospace">reads</text>
<text x="360" y="626" font-size="13" fill="#7C8CA3" font-weight="600" text-anchor="middle" letter-spacing="0" font-family="ui-monospace,SFMono-Regular,Menlo,Consolas,'Liberation Mono',monospace">writes</text>
<text x="880" y="594" font-size="13" fill="#7C8CA3" font-weight="600" text-anchor="middle" letter-spacing="0" font-family="ui-monospace,SFMono-Regular,Menlo,Consolas,'Liberation Mono',monospace">push</text>
<text x="880" y="610" font-size="13" fill="#7C8CA3" font-weight="600" text-anchor="middle" letter-spacing="0" font-family="ui-monospace,SFMono-Regular,Menlo,Consolas,'Liberation Mono',monospace">poll</text>
<text x="880" y="626" font-size="13" fill="#7C8CA3" font-weight="600" text-anchor="middle" letter-spacing="0" font-family="ui-monospace,SFMono-Regular,Menlo,Consolas,'Liberation Mono',monospace">pub/sub</text>
<text x="352" y="206" font-size="13" fill="#E8EEF5" opacity="1" font-family="ui-monospace,SFMono-Regular,Menlo,Consolas,'Liberation Mono',monospace" xml:space="preserve"><tspan fill="#1EE3CF">async function</tspan> research(context: Context, question: string) {</text>
<text x="352" y="226" font-size="13" fill="#C6D3E2" opacity="1" font-family="ui-monospace,SFMono-Regular,Menlo,Consolas,'Liberation Mono',monospace" xml:space="preserve">  const queries = await <tspan fill="#1EE3CF">context.run</tspan>(agent,</text>
<text x="352" y="246" font-size="13" fill="#C6D3E2" opacity="1" font-family="ui-monospace,SFMono-Regular,Menlo,Consolas,'Liberation Mono',monospace" xml:space="preserve">    `Plan the searches for: ${question}`);</text>
<text x="352" y="266" font-size="13" fill="#C6D3E2" opacity="1" font-family="ui-monospace,SFMono-Regular,Menlo,Consolas,'Liberation Mono',monospace" xml:space="preserve">  const results = await Promise.allSettled(</text>
<text x="352" y="286" font-size="13" fill="#C6D3E2" opacity="1" font-family="ui-monospace,SFMono-Regular,Menlo,Consolas,'Liberation Mono',monospace" xml:space="preserve">    queries.map((q) =&gt; <tspan fill="#1EE3CF">context.rpc</tspan>(search, q)),</text>
<text x="352" y="306" font-size="13" fill="#C6D3E2" opacity="1" font-family="ui-monospace,SFMono-Regular,Menlo,Consolas,'Liberation Mono',monospace" xml:space="preserve">  );</text>
<text x="352" y="326" font-size="13" fill="#C6D3E2" opacity="1" font-family="ui-monospace,SFMono-Regular,Menlo,Consolas,'Liberation Mono',monospace" xml:space="preserve">  return await <tspan fill="#1EE3CF">context.run</tspan>(agent,</text>
<text x="352" y="346" font-size="13" fill="#C6D3E2" opacity="1" font-family="ui-monospace,SFMono-Regular,Menlo,Consolas,'Liberation Mono',monospace" xml:space="preserve">    `Write a cited report. ${question}: ${results}`);</text>
<text x="352" y="366" font-size="13" fill="#E8EEF5" opacity="1" font-family="ui-monospace,SFMono-Regular,Menlo,Consolas,'Liberation Mono',monospace" xml:space="preserve">}</text>
<text x="1064" y="194" font-size="13" fill="#1EE3CF" font-weight="500" text-anchor="middle" letter-spacing="0" font-family="ui-monospace,SFMono-Regular,Menlo,Consolas,'Liberation Mono',monospace">Just functions</text>
<text x="1064" y="210" font-size="13" fill="#A9B8CC" font-weight="500" text-anchor="middle" letter-spacing="0">No DSLs, no DAGs, no YAML</text>
<path d="M948 202 L837.4 202" stroke="#3B5170" stroke-width="1.25"></path>
<circle cx="837.4" cy="202" r="2.5" fill="#3B5170"></circle>
<text x="184" y="214" font-size="13" fill="#1EE3CF" font-weight="500" text-anchor="middle" letter-spacing="0" font-family="ui-monospace,SFMono-Regular,Menlo,Consolas,'Liberation Mono',monospace">context.run</text>
<text x="184" y="230" font-size="13" fill="#A9B8CC" font-weight="500" text-anchor="middle" letter-spacing="0">Checkpoint the result</text>
<path d="M286 222 L344 222" stroke="#3B5170" stroke-width="1.25"></path>
<circle cx="344" cy="222" r="2.5" fill="#3B5170"></circle>
<text x="1064" y="274" font-size="13" fill="#1EE3CF" font-weight="500" text-anchor="middle" letter-spacing="0" font-family="ui-monospace,SFMono-Regular,Menlo,Consolas,'Liberation Mono',monospace">context.rpc</text>
<text x="1064" y="290" font-size="13" fill="#A9B8CC" font-weight="500" text-anchor="middle" letter-spacing="0">Fan out across processes</text>
<path d="M948 282 L727.9 282" stroke="#3B5170" stroke-width="1.25"></path>
<circle cx="727.9" cy="282" r="2.5" fill="#3B5170"></circle>
<text x="184" y="314" font-size="13" fill="#1EE3CF" font-weight="500" text-anchor="middle" letter-spacing="0" font-family="ui-monospace,SFMono-Regular,Menlo,Consolas,'Liberation Mono',monospace">Just resume</text>
<text x="184" y="330" font-size="13" fill="#A9B8CC" font-weight="500" text-anchor="middle" letter-spacing="0">Crashes cost nothing</text>
<path d="M286 322 L344 322" stroke="#3B5170" stroke-width="1.25"></path>
<circle cx="344" cy="322" r="2.5" fill="#3B5170"></circle>
</svg>
