<svg
  className="w-full h-full"
  viewBox="0 0 73 34"
  fill="none"
  xmlns="http://www.w3.org/2000/svg">
  <path
    stroke-width="1"
    stroke="#373f56"
    fill="#373f56"
    d="M67.6345 5.33393L67.9869 4.97919L67.6346 5.33394C74.1218 11.7773 74.1218 22.2226 67.6346 28.6659L67.9869 29.0206L67.6345 28.6659C61.1457 35.1114 50.6239 35.1114 44.1351 28.6659L43.7828 29.0206L44.1351 28.6659L31.891 16.5045C31.8478 16.4616 31.799 16.4279 31.7469 16.4035L24.7287 9.43274C20.5235 5.25575 13.7067 5.25575 9.50141 9.43275L9.5014 9.43276C5.29425 13.6118 5.29425 20.3881 9.5014 24.5671C13.7067 28.7442 20.5235 28.7442 24.7287 24.5671L26.4657 22.8419C26.6607 22.6482 26.9754 22.6482 27.1704 22.8419L30.5922 26.2407C30.789 26.4362 30.789 26.7546 30.5922 26.9502L28.8649 28.6659C22.376 35.1114 11.8541 35.1114 5.36527 28.6659L5.0129 29.0206L5.36526 28.6659C-1.12175 22.2226 -1.12175 11.7773 5.36526 5.33394C11.8541 -1.11131 22.376 -1.11131 28.8649 5.33393L41.1454 17.5323C41.1889 17.5756 41.2382 17.6094 41.2908 17.6339L48.2712 24.5671C52.4763 28.7442 59.2931 28.7442 63.4984 24.5671C67.7057 20.3881 67.7057 13.6118 63.4984 9.43275L63.1461 9.78749L63.4984 9.43275C59.2931 5.25576 52.4763 5.25574 48.2712 9.43276L46.534 11.1584C46.339 11.3521 46.0242 11.3521 45.8293 11.1584L42.4074 7.75947C42.2106 7.56393 42.2106 7.24551 42.4074 7.04998L44.1351 5.33394C50.6239 -1.11131 61.1458 -1.11131 67.6345 5.33393Z"
  />
</svg>